<svg width="163" height="29" viewBox="0 0 163 29" fill="none" xmlns="http://www.w3.org/2000/svg">
<path d="M114.778 1.33729C112.064 0.0923571 109.034 -0.295666 106.094 0.224953C103.154 0.745573 100.442 2.1501 98.3205 4.25127C96.9459 5.58915 95.8596 7.19417 95.1285 8.96757C94.3975 10.741 94.037 12.6452 94.0694 14.5631C94.0458 16.4572 94.4038 18.3367 95.122 20.0895C95.8402 21.8424 96.904 23.4326 98.2499 24.7656C99.5449 26.1243 101.106 27.2015 102.836 27.9298C104.566 28.6582 106.427 29.0222 108.304 28.999C112.294 28.999 115.628 27.5243 118.217 24.6139C119.316 23.3865 120.15 21.9452 120.666 20.3805C121.183 18.5783 121.432 16.7096 121.403 14.8347V13.727H109.599V18.0521H116.457L116.355 18.5566C116.008 20.1816 115.109 21.6364 113.811 22.6736C112.33 23.9884 110.415 24.7085 108.435 24.695C106.099 24.695 103.898 23.7848 101.891 21.9856C99.7175 20.0242 98.6591 17.597 98.6591 14.5772C98.6591 11.635 99.6081 9.25726 101.563 7.30284C102.487 6.33842 103.603 5.5781 104.839 5.07078C106.074 4.56346 107.403 4.32036 108.738 4.35711C111.945 4.35711 114.587 5.80352 116.824 8.78453L116.969 8.9715L120.242 5.83527L120.112 5.68357C118.376 3.68682 116.584 2.2263 114.778 1.33729Z" fill="#1A1A1A"/>
<path d="M152.201 28.5439V9.87815H147.752V11.3739L147.146 11.0706C145.877 10.4628 144.484 10.1607 143.078 10.1886C142.63 10.1901 142.183 10.2148 141.737 10.2627H141.653C139.667 10.4443 137.829 11.3905 136.527 12.9015C134.939 14.6654 134.138 16.9056 134.138 19.5479C134.138 22.1903 134.936 24.5186 136.527 26.3249C137.243 27.1398 138.122 27.7964 139.107 28.2526C140.091 28.7088 141.16 28.9546 142.245 28.9743C142.378 28.9905 142.511 28.9988 142.644 28.999C144.503 28.9707 146.003 28.6744 147.153 28.117L147.756 27.8242V28.5298L152.201 28.5439ZM146.687 23.5202C146.256 24.0071 145.722 24.3917 145.124 24.6462C144.526 24.9007 143.879 25.0186 143.23 24.9913C142.601 25.0063 141.977 24.8778 141.406 24.6155C140.834 24.3533 140.33 23.9642 139.931 23.4779C139.07 22.4619 138.643 21.1672 138.643 19.5479C138.594 18.1682 139.063 16.8201 139.959 15.7696C140.363 15.2882 140.87 14.9034 141.442 14.6434C142.014 14.3833 142.637 14.2546 143.265 14.2668C143.906 14.2426 144.545 14.3625 145.134 14.6177C145.724 14.8729 146.248 15.2569 146.669 15.7414C147.578 16.8251 148.05 18.2089 147.992 19.622C147.999 21.2272 147.572 22.5007 146.687 23.5202Z" fill="#1A1A1A"/>
<path d="M89.2293 28.5086V9.83582H84.7807V11.3316L84.1704 11.0282C82.9034 10.42 81.5114 10.1179 80.1063 10.1463C79.6585 10.1478 79.211 10.1725 78.7657 10.2204L78.6705 10.2309C76.6818 10.4088 74.84 11.3525 73.534 12.8627C71.95 14.6266 71.1456 16.8668 71.1456 19.5091C71.1456 22.1515 71.9676 24.4833 73.5516 26.2896C74.2682 27.1029 75.1466 27.7576 76.1307 28.212C77.1148 28.6664 78.1829 28.9104 79.2667 28.9284C79.4001 28.9457 79.5344 28.9552 79.6689 28.9566C81.5245 28.9237 83.0273 28.6285 84.1774 28.0711L84.7807 27.7819V28.4874L89.2293 28.5086ZM83.7153 23.4885C83.2846 23.9732 82.7517 24.3562 82.1551 24.61C81.5584 24.8638 80.9129 24.982 80.2651 24.9561C79.6363 24.9715 79.0123 24.8432 78.4407 24.581C77.8691 24.3187 77.3649 23.9293 76.9665 23.4426C76.0987 22.4266 75.6789 21.1425 75.6789 19.5126C75.6294 18.1329 76.0989 16.7848 76.9948 15.7343C77.3981 15.2524 77.9045 14.8671 78.4767 14.607C79.0488 14.3469 79.672 14.2186 80.3003 14.2315C80.9419 14.2076 81.5806 14.3276 82.1697 14.5828C82.7588 14.838 83.2833 15.2218 83.7047 15.7061C84.6131 16.79 85.0848 18.1736 85.0276 19.5867C85.0921 21.0055 84.624 22.3971 83.7153 23.4885V23.4885Z" fill="#1A1A1A"/>
<path d="M53.6653 18.0239C53.1361 15.2016 51.9719 13.1202 50.2151 11.8008C48.8931 10.8117 47.2797 10.2905 45.6289 10.3191C44.9883 10.3225 44.3494 10.3851 43.7203 10.5061C41.2191 10.9788 39.3388 12.21 38.1323 14.1609C36.9257 16.1118 36.6188 18.4825 37.1304 21.1672C37.6419 23.8519 38.8519 25.9615 40.7146 27.3268C42.5773 28.692 44.8739 29.1118 47.4175 28.6321C48.2462 28.4814 49.0531 28.2291 49.8199 27.8806C50.5384 27.547 51.2002 27.103 51.7814 26.5648C52.3886 26.017 52.9169 25.3878 53.3513 24.695C53.7079 24.1122 54.0159 23.501 54.272 22.8676V22.85L50.2009 21.5764C49.7917 22.6101 49.3895 23.2486 48.8886 23.6755C48.2911 24.2123 47.5598 24.578 46.7719 24.7338C46.2387 24.8576 45.6855 24.8684 45.1478 24.7658C44.6101 24.6631 44.0999 24.4491 43.6498 24.1376C42.8769 23.5843 42.294 22.8056 41.9811 21.908L41.8012 21.4388L53.8522 19.1599L53.6653 18.0239ZM41.4025 17.7981L41.5789 17.149C41.6192 17.0041 41.6675 16.8616 41.7236 16.7221C41.8802 16.3296 42.0994 15.965 42.3727 15.6426C42.6456 15.3269 42.9701 15.0597 43.3323 14.8524C43.7125 14.6367 44.1263 14.4864 44.5564 14.4079C46.2462 14.0868 47.5163 14.5843 48.3947 15.879L48.7475 16.4082L41.4025 17.7981Z" fill="#1A1A1A"/>
<path d="M28.9952 1.46782H23.6435L27.7428 28.4768H33.7472L28.9952 1.46782Z" fill="black"/>
<path d="M28.9952 1.46782H23.6435L27.7428 28.4768H33.7472L28.9952 1.46782Z" fill="#0062FF"/>
<path d="M4.75198 1.41843H10.1037L6.00436 28.4275H0L4.75198 1.41843Z" fill="#0062FF"/>
<path d="M23.6435 1.46782H24.6595V1.46429H23.6223L13.5292 22.9064H19.904L25.1569 11.4375L23.6435 1.46782Z" fill="#0325EF"/>
<path d="M16.6725 16.2318L10.1496 1.46429H10.0966L8.55145 11.6526L13.5292 22.9064L16.6725 16.2318Z" fill="#0202BC"/>
<path d="M129.118 24.7726C129.118 25.3545 128.946 25.9234 128.623 26.4072C128.299 26.8911 127.84 27.2682 127.302 27.4909C126.764 27.7136 126.173 27.7718 125.602 27.6583C125.031 27.5448 124.507 27.2646 124.096 26.8531C123.684 26.4416 123.404 25.9174 123.29 25.3466C123.177 24.7759 123.235 24.1843 123.458 23.6467C123.681 23.1091 124.058 22.6496 124.542 22.3263C125.025 22.003 125.594 21.8304 126.176 21.8304C126.956 21.8304 127.705 22.1404 128.257 22.6922C128.808 23.2439 129.118 23.9923 129.118 24.7726V24.7726Z" fill="#1A1A1A"/>
<path d="M162.929 5.57774C162.929 6.16035 162.756 6.72987 162.433 7.2143C162.109 7.69872 161.649 8.07628 161.111 8.29924C160.572 8.5222 159.98 8.58053 159.409 8.46687C158.837 8.35321 158.312 8.07265 157.9 7.66068C157.488 7.24872 157.208 6.72384 157.094 6.15242C156.98 5.581 157.039 4.98872 157.262 4.45045C157.485 3.91219 157.862 3.45213 158.347 3.12845C158.831 2.80477 159.401 2.632 159.983 2.632C160.765 2.632 161.514 2.94236 162.066 3.49479C162.619 4.04722 162.929 4.79648 162.929 5.57774V5.57774Z" fill="#1A1A1A"/>
<path d="M161.476 10.6896L161.486 10.6966H157.757V28.4839H162.188V10.6896H161.476Z" fill="#1A1A1A"/>
<path d="M64.5133 10.6966V3.90555H60.0824L60.0718 8.527L60.0824 8.53405V10.6966H56.6921V14.863H60.0824V28.4839H64.5133V14.863H67.6354V10.6966H64.5133Z" fill="#1A1A1A"/>
</svg>
